# xmcd CD database file
#
# Track frame offsets:
#	150
#	11267
#	25017
#	47403
#	61177
#	72520
#	85839
#	101288
#	113760
#	132406
#	148240
#	170452
#	182683
#	201408
#
# Disc length: 2909 seconds
#
# Revision: 1
# Processed by: cddbd v1.5.2PL0 Copyright (c) Steve Scherf et al.
# Submitted via: CDex 1.70beta2
#
DISCID=b90b5b0e
DTITLE=Shilvi - La tour de bébelles
DYEAR=2004
DGENRE=Noel
TTITLE0=Sur le lac gelé
TTITLE1=La cuisine à la mode
TTITLE2=La tour de bébelles
TTITLE3=Le pays du père Noël
TTITLE4=Les petites cloches de Noël
TTITLE5=Les soeurs Crevette
TTITLE6=Noël sous les palmiers
TTITLE7=J'ai si hâte à Noël
TTITLE8=Rebelote la belette
TTITLE9=Mais où sont mes cadeaux ?
TTITLE10=Le lutin câlin
TTITLE11=Quatre gouttes de pluie
TTITLE12=Pantalon le raton
TTITLE13=Un amour de bonhomme
EXTD=YEAR: 2004
EXTT0=
EXTT1=
EXTT2=
EXTT3=
EXTT4=
EXTT5=
EXTT6=
EXTT7=
EXTT8=
EXTT9=
EXTT10=
EXTT11=
EXTT12=
EXTT13=
PLAYORDER=
